<svg width="25" height="24" viewBox="0 0 25 24" fill="none" xmlns="http://www.w3.org/2000/svg">
<path d="M24.5 10V19C24.5 21.76 22.26 24 19.5 24H5.5C2.74 24 0.5 21.76 0.5 19V8C0.5 5.24 2.74 3 5.5 3H13.5C14.05 3 14.5 3.45 14.5 4C14.5 4.55 14.05 5 13.5 5H5.5C4.35 5 3.36 5.65 2.85 6.59L10.38 14.12C11.55 15.29 13.45 15.29 14.62 14.12L18.44 10.3C18.83 9.91 19.46 9.91 19.85 10.3C20.24 10.69 20.24 11.32 19.85 11.71L16.03 15.53C15.06 16.5 13.77 16.99 12.49 16.99C11.21 16.99 9.93 16.5 8.95 15.53L2.5 9.07V19C2.5 20.65 3.85 22 5.5 22H19.5C21.15 22 22.5 20.65 22.5 19V10C22.5 9.45 22.95 9 23.5 9C24.05 9 24.5 9.45 24.5 10ZM16.5 4C16.5 1.79 18.29 0 20.5 0C22.71 0 24.5 1.79 24.5 4C24.5 6.21 22.71 8 20.5 8C18.29 8 16.5 6.21 16.5 4ZM18.5 4C18.5 5.1 19.4 6 20.5 6C21.6 6 22.5 5.1 22.5 4C22.5 2.9 21.6 2 20.5 2C19.4 2 18.5 2.9 18.5 4Z" fill="#82919A"/>
</svg>
