<svg width="25" height="24" viewBox="0 0 25 24" fill="none" xmlns="http://www.w3.org/2000/svg">
<g clip-path="url(#clip0_169_544)">
<path d="M19.5 0H5.5C4.17441 0.00158786 2.90356 0.528882 1.96622 1.46622C1.02888 2.40356 0.501588 3.67441 0.5 5L0.5 19C0.501588 20.3256 1.02888 21.5964 1.96622 22.5338C2.90356 23.4711 4.17441 23.9984 5.5 24H19.5C20.8256 23.9984 22.0964 23.4711 23.0338 22.5338C23.9711 21.5964 24.4984 20.3256 24.5 19V5C24.4984 3.67441 23.9711 2.40356 23.0338 1.46622C22.0964 0.528882 20.8256 0.00158786 19.5 0ZM7.5 22V21C7.5 19.6739 8.02678 18.4021 8.96447 17.4645C9.90215 16.5268 11.1739 16 12.5 16C13.8261 16 15.0979 16.5268 16.0355 17.4645C16.9732 18.4021 17.5 19.6739 17.5 21V22H7.5ZM22.5 19C22.5 19.7956 22.1839 20.5587 21.6213 21.1213C21.0587 21.6839 20.2956 22 19.5 22V21C19.5 19.1435 18.7625 17.363 17.4497 16.0503C16.137 14.7375 14.3565 14 12.5 14C10.6435 14 8.86301 14.7375 7.55025 16.0503C6.2375 17.363 5.5 19.1435 5.5 21V22C4.70435 22 3.94129 21.6839 3.37868 21.1213C2.81607 20.5587 2.5 19.7956 2.5 19V5C2.5 4.20435 2.81607 3.44129 3.37868 2.87868C3.94129 2.31607 4.70435 2 5.5 2H19.5C20.2956 2 21.0587 2.31607 21.6213 2.87868C22.1839 3.44129 22.5 4.20435 22.5 5V19Z" fill="#82919A"/>
<path d="M12.5 4C11.7089 4 10.9355 4.2346 10.2777 4.67412C9.61993 5.11365 9.10723 5.73836 8.80448 6.46927C8.50173 7.20017 8.42252 8.00444 8.57686 8.78036C8.7312 9.55629 9.11216 10.269 9.67157 10.8284C10.231 11.3878 10.9437 11.7688 11.7196 11.9231C12.4956 12.0775 13.2998 11.9983 14.0307 11.6955C14.7616 11.3928 15.3864 10.8801 15.8259 10.2223C16.2654 9.56448 16.5 8.79113 16.5 8C16.5 6.93913 16.0786 5.92172 15.3284 5.17157C14.5783 4.42143 13.5609 4 12.5 4ZM12.5 10C12.1044 10 11.7178 9.8827 11.3889 9.66294C11.06 9.44318 10.8036 9.13082 10.6522 8.76537C10.5009 8.39991 10.4613 7.99778 10.5384 7.60982C10.6156 7.22186 10.8061 6.86549 11.0858 6.58579C11.3655 6.30608 11.7219 6.1156 12.1098 6.03843C12.4978 5.96126 12.8999 6.00087 13.2654 6.15224C13.6308 6.30362 13.9432 6.55996 14.1629 6.88886C14.3827 7.21776 14.5 7.60444 14.5 8C14.5 8.53043 14.2893 9.03914 13.9142 9.41421C13.5391 9.78929 13.0304 10 12.5 10Z" fill="#82919A"/>
</g>
<defs>
<clipPath id="clip0_169_544">
<rect width="24" height="24" fill="white" transform="translate(0.5)"/>
</clipPath>
</defs>
</svg>
