<svg width="25" height="24" viewBox="0 0 25 24" fill="none" xmlns="http://www.w3.org/2000/svg">
<g clip-path="url(#clip0_169_531)">
<path d="M22.9841 10.8609L12.4991 17.1529L2.01408 10.8609C1.78666 10.7244 1.51435 10.6839 1.25705 10.7482C0.999747 10.8126 0.778538 10.9765 0.642084 11.2039C0.50563 11.4313 0.465109 11.7036 0.529434 11.9609C0.593758 12.2182 0.757661 12.4394 0.985084 12.5759L11.9851 19.1759C12.1406 19.2693 12.3186 19.3187 12.5001 19.3187C12.6815 19.3187 12.8596 19.2693 13.0151 19.1759L24.0151 12.5759C24.2425 12.4394 24.4064 12.2182 24.4707 11.9609C24.5351 11.7036 24.4945 11.4313 24.3581 11.2039C24.2216 10.9765 24.0004 10.8126 23.7431 10.7482C23.4858 10.6839 23.2135 10.7244 22.9861 10.8609H22.9841Z" fill="#82919A"/>
<path d="M22.9841 15.4288L12.4991 21.7198L2.01408 15.4288C1.90147 15.3612 1.77666 15.3165 1.64677 15.2971C1.51687 15.2778 1.38445 15.2843 1.25704 15.3161C1.12964 15.348 1.00976 15.4046 0.904245 15.4828C0.79873 15.561 0.709646 15.6592 0.642081 15.7718C0.574516 15.8844 0.529792 16.0092 0.510464 16.1391C0.491135 16.269 0.49758 16.4014 0.529431 16.5288C0.593756 16.7861 0.757658 17.0073 0.985081 17.1438L11.9851 23.7438C12.1406 23.8372 12.3186 23.8866 12.5001 23.8866C12.6815 23.8866 12.8596 23.8372 13.0151 23.7438L24.0151 17.1438C24.2425 17.0073 24.4064 16.7861 24.4707 16.5288C24.5351 16.2715 24.4945 15.9992 24.3581 15.7718C24.2216 15.5443 24.0004 15.3804 23.7431 15.3161C23.4858 15.2518 23.2135 15.2923 22.9861 15.4288H22.9841Z" fill="#82919A"/>
<path d="M12.4991 14.6589C11.9597 14.6586 11.4305 14.5117 10.9681 14.2339L0.984073 8.24292C0.836221 8.15402 0.713884 8.02837 0.628954 7.8782C0.544024 7.72803 0.49939 7.55844 0.49939 7.38592C0.49939 7.2134 0.544024 7.04381 0.628954 6.89364C0.713884 6.74347 0.836221 6.61783 0.984073 6.52892L10.9681 0.53792C11.4304 0.260149 11.9597 0.113403 12.4991 0.113403C13.0385 0.113403 13.5677 0.260149 14.0301 0.53792L24.0141 6.52892C24.1619 6.61783 24.2843 6.74347 24.3692 6.89364C24.4541 7.04381 24.4988 7.2134 24.4988 7.38592C24.4988 7.55844 24.4541 7.72803 24.3692 7.8782C24.2843 8.02837 24.1619 8.15402 24.0141 8.24292L14.0301 14.2339C13.5677 14.5117 13.0385 14.6586 12.4991 14.6589ZM3.44307 7.38592L11.9991 12.5189C12.1502 12.6093 12.323 12.6571 12.4991 12.6571C12.6752 12.6571 12.848 12.6093 12.9991 12.5189L21.5551 7.38592L12.9991 2.25292C12.848 2.16253 12.6752 2.11479 12.4991 2.11479C12.323 2.11479 12.1502 2.16253 11.9991 2.25292L3.44307 7.38592Z" fill="#82919A"/>
</g>
<defs>
<clipPath id="clip0_169_531">
<rect width="24" height="24" fill="white" transform="translate(0.5)"/>
</clipPath>
</defs>
</svg>
