<svg width="25" height="24" viewBox="0 0 25 24" fill="none" xmlns="http://www.w3.org/2000/svg">
<g clip-path="url(#clip0_169_527)">
<path d="M16.5 6C16.7652 6 17.0196 6.10536 17.2071 6.29289C17.3946 6.48043 17.5 6.73478 17.5 7C17.5 7.26522 17.3946 7.51957 17.2071 7.70711C17.0196 7.89464 16.7652 8 16.5 8H8.5C8.23478 8 7.98043 7.89464 7.79289 7.70711C7.60536 7.51957 7.5 7.26522 7.5 7C7.5 6.73478 7.60536 6.48043 7.79289 6.29289C7.98043 6.10536 8.23478 6 8.5 6H16.5ZM24.207 23.707C24.0195 23.8945 23.7652 23.9998 23.5 23.9998C23.2348 23.9998 22.9805 23.8945 22.793 23.707L20.386 21.3C19.6732 21.755 18.8456 21.9977 18 22C17.11 22 16.24 21.7361 15.4999 21.2416C14.7599 20.7471 14.1831 20.0443 13.8425 19.2221C13.5019 18.3998 13.4128 17.495 13.5865 16.6221C13.7601 15.7492 14.1887 14.9474 14.818 14.318C15.4474 13.6887 16.2492 13.2601 17.1221 13.0865C17.995 12.9128 18.8998 13.0019 19.7221 13.3425C20.5443 13.6831 21.2471 14.2599 21.7416 14.9999C22.2361 15.74 22.5 16.61 22.5 17.5C22.4977 18.3456 22.255 19.1732 21.8 19.886L24.207 22.293C24.3945 22.4805 24.4998 22.7348 24.4998 23C24.4998 23.2652 24.3945 23.5195 24.207 23.707ZM18 20C18.4945 20 18.9778 19.8534 19.3889 19.5787C19.8 19.304 20.1205 18.9135 20.3097 18.4567C20.4989 17.9999 20.5484 17.4972 20.452 17.0123C20.3555 16.5273 20.1174 16.0819 19.7678 15.7322C19.4181 15.3826 18.9727 15.1445 18.4877 15.048C18.0028 14.9516 17.5001 15.0011 17.0433 15.1903C16.5865 15.3795 16.196 15.7 15.9213 16.1111C15.6466 16.5222 15.5 17.0055 15.5 17.5C15.5 18.163 15.7634 18.7989 16.2322 19.2678C16.7011 19.7366 17.337 20 18 20ZM13.5 22H7.5C6.70435 22 5.94129 21.6839 5.37868 21.1213C4.81607 20.5587 4.5 19.7956 4.5 19V5C4.5 4.20435 4.81607 3.44129 5.37868 2.87868C5.94129 2.31607 6.70435 2 7.5 2H19.5C19.7652 2 20.0196 2.10536 20.2071 2.29289C20.3946 2.48043 20.5 2.73478 20.5 3V11C20.5 11.2652 20.6054 11.5196 20.7929 11.7071C20.9804 11.8946 21.2348 12 21.5 12C21.7652 12 22.0196 11.8946 22.2071 11.7071C22.3946 11.5196 22.5 11.2652 22.5 11V3C22.5 2.20435 22.1839 1.44129 21.6213 0.87868C21.0587 0.31607 20.2956 0 19.5 0L7.5 0C6.17441 0.00158786 4.90356 0.528882 3.96622 1.46622C3.02888 2.40356 2.50159 3.67441 2.5 5V19C2.50159 20.3256 3.02888 21.5964 3.96622 22.5338C4.90356 23.4711 6.17441 23.9984 7.5 24H13.5C13.7652 24 14.0196 23.8946 14.2071 23.7071C14.3946 23.5196 14.5 23.2652 14.5 23C14.5 22.7348 14.3946 22.4804 14.2071 22.2929C14.0196 22.1054 13.7652 22 13.5 22Z" fill="#82919A"/>
</g>
<defs>
<clipPath id="clip0_169_527">
<rect width="24" height="24" fill="white" transform="translate(0.5)"/>
</clipPath>
</defs>
</svg>
