<svg width="177" height="29" viewBox="0 0 177 29" fill="none" xmlns="http://www.w3.org/2000/svg">
<path d="M13.375 2.26562H20.3438V23H13.4219V14.5781H8.29688V10.4219H13.375V2.26562ZM7.20312 23H0.296875V2.26562H7.20312V23ZM34.7188 23V10.5469H24.8906V8.48438L26.9688 6.40625H37.3281L41.4688 10.5469V23H34.7188ZM33.625 13.3438V16.2188H30.0625V19.125H33.625V20.9531L31.5625 23H26.2812L23.5 20.2656V16.1094L26.2812 13.3438H33.625ZM44.5938 23V6.40625H51.5625V23H44.5938ZM55.6562 10.5469H52.6875V8.73438L55 6.40625H58.8438L62.5781 10.1406V23H55.6562V10.5469ZM83.875 0.078125V23H76.9688V0.078125H83.875ZM72.5469 19.125H75.875V21.3594L74.2344 23H69.375L65.6406 19.2656V10.1406L69.375 6.40625H75.875V10.5469H72.5469V19.125ZM96.375 28.7812H89.75L98.1562 6.40625H104.797L96.375 28.7812ZM85.2812 6.40625H92.1719L94.5 13.1562L91.4062 21.6094L85.2812 6.40625ZM106.453 23V6.40625H113.375V23H106.453ZM117.281 10.5469H114.469V8.59375L116.641 6.40625H121.984L124.203 8.625V23H117.281V10.5469ZM128.109 10.5469H125.297V8.625L127.422 6.40625H131.641L135.016 9.8125V23H128.109V10.5469ZM149.094 23V10.5469H139.266V8.48438L141.344 6.40625H151.703L155.844 10.5469V23H149.094ZM148 13.3438V16.2188H144.438V19.125H148V20.9531L145.938 23H140.656L137.875 20.2656V16.1094L140.656 13.3438H148ZM158.969 23V6.40625H165.938V23H158.969ZM170.031 10.5469H167.062V8.73438L169.375 6.40625H173.219L176.953 10.1406V23H170.031V10.5469Z" fill="black"/>
</svg>
