<svg width="360" height="360" viewBox="0 0 360 360" fill="none" xmlns="http://www.w3.org/2000/svg">
<circle cx="180" cy="180" r="180" fill="url(#paint0_linear_9_1265)"/>
<g clip-path="url(#clip0_9_1265)">
<path d="M70.3215 272.644C50.6342 251.5 44.402 213.869 59.4551 200.344C73.3897 187.811 100.635 200.344 108.993 188.099C118.213 174.542 90.7439 150.276 100.524 138.031C107.475 129.388 123.982 138.128 133.123 129.132C145.763 116.695 122.145 92.0934 134.337 73.5261C144.181 58.5122 173.424 53.4862 183.875 62.3217C194.614 71.5893 180.423 91.4051 191.082 100.225C203.866 110.837 234.068 90.2687 244.215 100.225C251.183 107.059 238.527 118.232 244.215 133.598C251.582 153.478 278.892 151.205 284.069 169.196C287.793 182.113 274.737 187.075 274.482 207.019C274.13 228.323 288.863 234.918 287.777 245.946C284.229 281.128 122.991 329.147 70.3215 272.644Z" fill="#B0F7E9"/>
<path d="M83.1214 260.464C65.9589 242.072 60.5417 209.292 73.6613 197.495C85.7901 186.595 109.52 197.495 116.807 186.835C124.797 175.022 100.827 153.894 109.44 143.25C115.497 135.711 129.879 143.346 137.837 135.502C148.847 124.666 128.249 103.234 138.891 87.0674C147.473 74.0063 172.945 69.6206 182.037 77.3836C191.386 85.3868 179.065 102.626 188.429 110.309C199.615 119.544 225.87 101.633 234.771 110.309C240.828 116.263 229.801 125.995 234.771 139.376C241.163 156.695 264.957 154.742 269.48 170.38C272.676 181.585 261.346 185.954 261.058 203.305C260.755 221.856 273.571 227.619 272.628 237.222C269.4 267.859 128.984 309.683 83.1214 260.464Z" fill="#94EAD9"/>
<path d="M179.992 301.984C253.994 301.984 313.984 294.316 313.984 284.857C313.984 275.398 253.994 267.73 179.992 267.73C105.99 267.73 46 275.398 46 284.857C46 294.316 105.99 301.984 179.992 301.984Z" fill="#80D2C3"/>
<path opacity="0.35" d="M128.776 167.771L126.955 165.738C126.928 165.705 126.894 165.679 126.855 165.662C126.816 165.645 126.773 165.638 126.731 165.642L123.535 154.31C123.593 154.237 123.626 154.147 123.631 154.054L123.918 150.933C123.928 150.788 123.882 150.645 123.791 150.532L121.937 148.532C121.891 148.495 121.835 148.475 121.777 148.475C121.719 148.475 121.663 148.495 121.617 148.532L121.202 148.74L122.081 149.7C122.106 149.762 122.106 149.831 122.081 149.892L121.937 151.381C121.937 151.414 121.929 151.446 121.912 151.475C121.895 151.503 121.87 151.526 121.841 151.541L120.834 152.085C120.81 152.099 120.782 152.106 120.754 152.106C120.726 152.106 120.699 152.099 120.674 152.085L119.796 151.125C119.771 151.063 119.771 150.994 119.796 150.933L119.923 149.444L119.46 149.684C119.405 149.725 119.359 149.778 119.326 149.839C119.292 149.9 119.273 149.967 119.268 150.036L118.997 153.141C118.987 153.216 118.994 153.292 119.016 153.363C119.038 153.435 119.075 153.501 119.124 153.558L120.962 155.542C120.996 155.58 121.038 155.608 121.086 155.625C121.133 155.641 121.184 155.646 121.234 155.638L124.43 166.843C124.359 166.924 124.314 167.024 124.302 167.131L123.998 170.236C123.986 170.31 123.989 170.385 124.008 170.457C124.028 170.528 124.062 170.595 124.11 170.652L125.9 172.637C125.945 172.673 126.002 172.693 126.06 172.693C126.118 172.693 126.174 172.673 126.219 172.637L126.683 172.413L125.804 171.453C125.781 171.391 125.781 171.322 125.804 171.261L125.948 169.772C125.951 169.74 125.962 169.709 125.978 169.681C125.995 169.654 126.017 169.63 126.044 169.612L127.066 169.1C127.089 169.082 127.117 169.072 127.146 169.072C127.175 169.072 127.204 169.082 127.226 169.1L128.089 170.06C128.115 170.127 128.115 170.201 128.089 170.268L127.945 171.741L128.345 171.533C128.403 171.497 128.45 171.448 128.484 171.389C128.517 171.331 128.536 171.264 128.537 171.197L128.856 168.091C128.864 167.979 128.836 167.867 128.776 167.771Z" fill="white"/>
<path opacity="0.35" d="M208.692 129.356L207.094 124.122L201.757 122.89L198.033 126.907L199.631 132.141L204.969 133.374L208.692 129.356ZM201.485 130.14L200.686 127.515L202.604 125.515L205.256 126.123L206.055 128.748L204.202 130.749L201.485 130.14Z" fill="white"/>
<path opacity="0.35" d="M198.481 251.916L196.883 246.554L191.418 245.274L187.599 249.387L189.197 254.749L194.662 255.998L198.481 251.916ZM191.13 252.701L190.299 250.076L192.201 248.027L194.933 248.651L195.748 251.34L193.847 253.277L191.13 252.701Z" fill="white"/>
<path opacity="0.35" d="M205.176 181.841L198.784 177.807L192.105 181.248L191.801 188.803L198.193 192.837L204.873 189.332L205.176 181.841ZM198.337 189.124L195.141 187.107L195.301 183.329L198.641 181.585L201.837 183.601L201.693 187.379L198.337 189.124Z" fill="white"/>
<path opacity="0.35" d="M177.291 231.364L179.944 228.947C179.988 228.91 180.022 228.863 180.044 228.81C180.066 228.758 180.076 228.7 180.072 228.643L194.901 224.465C195.005 224.539 195.126 224.583 195.253 224.594L199.328 224.946C199.523 224.964 199.717 224.906 199.871 224.786L202.476 222.337C202.524 222.275 202.55 222.199 202.55 222.121C202.55 222.042 202.524 221.966 202.476 221.904L202.284 221.264L201.054 222.433C201.014 222.452 200.97 222.463 200.926 222.463C200.881 222.463 200.838 222.452 200.798 222.433L198.848 222.273C198.804 222.268 198.762 222.254 198.723 222.232C198.685 222.21 198.651 222.18 198.625 222.145L197.922 220.816C197.899 220.786 197.888 220.749 197.888 220.712C197.888 220.675 197.899 220.638 197.922 220.608L199.152 219.439C199.235 219.415 199.324 219.415 199.408 219.439L201.357 219.616L201.022 219.007C200.976 218.929 200.911 218.864 200.832 218.819C200.754 218.774 200.665 218.75 200.574 218.751L196.499 218.399C196.304 218.381 196.11 218.438 195.956 218.559L193.351 221.008C193.305 221.049 193.27 221.102 193.25 221.161C193.23 221.22 193.227 221.283 193.239 221.344L178.49 225.554C178.389 225.46 178.259 225.404 178.122 225.394L174.047 224.994C173.853 224.976 173.658 225.033 173.504 225.154L170.899 227.667C170.841 227.72 170.8 227.79 170.783 227.868C170.766 227.945 170.773 228.026 170.804 228.099L171.123 228.707L172.386 227.555C172.418 227.522 172.459 227.497 172.504 227.483C172.548 227.469 172.595 227.466 172.641 227.475L174.591 227.667C174.634 227.663 174.678 227.674 174.715 227.697C174.753 227.72 174.782 227.754 174.799 227.795L175.486 229.139C175.506 229.167 175.518 229.201 175.518 229.235C175.518 229.27 175.506 229.304 175.486 229.331L174.223 230.484C174.18 230.503 174.134 230.513 174.087 230.513C174.041 230.513 173.994 230.503 173.952 230.484L172.018 230.292L172.242 230.868C172.291 230.943 172.358 231.005 172.435 231.049C172.513 231.093 172.6 231.119 172.689 231.124L176.764 231.524C176.954 231.538 177.141 231.481 177.291 231.364Z" fill="white"/>
<path opacity="0.35" d="M92.6774 242.665L95.5379 236.806C95.6243 236.585 95.6243 236.339 95.5379 236.118L116.647 222.865C116.822 222.994 117.038 223.057 117.255 223.041L123.774 222.545C123.937 222.539 124.095 222.488 124.23 222.397C124.366 222.307 124.474 222.181 124.542 222.033L127.37 216.126C127.451 215.988 127.495 215.831 127.495 215.67C127.495 215.51 127.451 215.352 127.37 215.214L126.683 214.189L125.325 217.007C125.294 217.077 125.245 217.137 125.183 217.182C125.122 217.227 125.049 217.255 124.973 217.263L121.857 217.487C121.781 217.496 121.703 217.484 121.633 217.453C121.563 217.422 121.502 217.373 121.457 217.311L119.7 214.718C119.665 214.651 119.646 214.577 119.646 214.502C119.646 214.426 119.665 214.352 119.7 214.285L121.058 211.468C121.091 211.397 121.143 211.336 121.207 211.291C121.272 211.246 121.347 211.219 121.425 211.212L124.542 210.988L123.743 209.804C123.651 209.67 123.526 209.563 123.38 209.493C123.234 209.423 123.073 209.392 122.912 209.404L116.392 209.884C116.229 209.896 116.072 209.952 115.937 210.044C115.802 210.137 115.695 210.264 115.625 210.412L112.78 216.302C112.729 216.421 112.702 216.549 112.702 216.678C112.702 216.808 112.729 216.936 112.78 217.055L92.0063 230.308C91.915 230.227 91.8086 230.166 91.6933 230.128C91.5781 230.089 91.4563 230.074 91.3351 230.084L84.8153 230.468C84.6548 230.474 84.4988 230.523 84.3639 230.611C84.2289 230.698 84.1199 230.82 84.0483 230.964L81.108 236.838C81.0264 236.977 80.9834 237.134 80.9834 237.295C80.9834 237.455 81.0264 237.613 81.108 237.751L81.891 238.935L83.2972 236.134C83.3324 236.069 83.3827 236.013 83.4439 235.971C83.505 235.929 83.5753 235.903 83.6488 235.894L86.8448 235.718C86.9201 235.712 86.9956 235.727 87.0632 235.761C87.1307 235.794 87.1878 235.846 87.2283 235.91L88.9541 238.519C88.9934 238.587 89.0141 238.664 89.0141 238.743C89.0141 238.822 88.9934 238.899 88.9541 238.967L87.5639 241.752C87.5311 241.823 87.4793 241.882 87.4143 241.925C87.3494 241.967 87.2739 241.991 87.1963 241.992L84.0802 242.184L84.7674 243.225C84.854 243.36 84.9757 243.468 85.1193 243.538C85.2629 243.609 85.423 243.639 85.5823 243.625L92.1182 243.241C92.2485 243.193 92.3665 243.116 92.4633 243.017C92.5601 242.917 92.6333 242.797 92.6774 242.665Z" fill="white"/>
<path d="M287.937 283.593C287.937 287.338 265.181 290.379 237.136 290.379C209.092 290.379 186.336 287.338 186.336 283.593C186.336 279.847 209.076 276.79 237.136 276.79C265.197 276.79 287.937 279.831 287.937 283.593Z" fill="#59B2A1"/>
<path d="M222.483 176.991C222.483 176.991 204.793 205.674 207.542 227.667C210.29 249.659 218.36 278.663 218.36 278.663L223.154 277.846C223.154 277.846 223.649 234.95 226.494 227.699C229.114 221.024 245.798 177.167 245.798 177.167L222.483 176.991Z" fill="#AD815B"/>
<path d="M246.948 176.767C246.948 176.767 252.094 188.739 251.63 193.205C251.167 197.671 248.099 217.391 251.758 227.923C255.417 238.455 271.126 279.335 271.126 279.335L265.325 279.639C265.325 279.639 235.746 238.103 233.221 230.228C229.562 218.767 222.483 177.023 222.483 177.023L246.948 176.767Z" fill="#AD815B"/>
<path d="M223.234 274.949C223.234 274.949 226.318 280.856 225.247 281.08C222.051 281.704 209.587 281.08 204.298 281.416C199.695 281.704 217.369 275.013 217.369 275.013L223.234 274.949Z" fill="#324476"/>
<path d="M270.199 277.046C270.199 277.046 273.219 282.872 272.053 283.449C269.464 284.553 254.938 283.273 248.802 283.657C243.465 283.993 263.727 277.462 263.727 277.462L270.199 277.046Z" fill="#324476"/>
<path d="M236.785 101.345C236.785 101.345 235.043 97.2634 231.384 97.5675C230.398 97.6025 229.448 97.9409 228.661 98.5367C227.875 99.1324 227.291 99.9566 226.989 100.897C226.989 100.897 225.998 100.273 223.426 101.649C221.828 102.53 221.236 106.755 223.154 106.835C222.629 107.181 222.24 107.699 222.054 108.301C221.867 108.902 221.895 109.549 222.131 110.132C223.042 112.133 227.9 110.981 227.9 110.981L236.785 101.345Z" fill="#324476"/>
<path d="M225.087 108.1C222.69 114.886 219.063 120.425 225.087 123.098C226.161 123.605 227.311 123.929 228.491 124.058C228.653 124.069 228.808 124.128 228.936 124.228C229.064 124.328 229.16 124.464 229.21 124.618C229.552 126.113 229.457 127.674 228.939 129.116C228.939 129.116 231.256 131.773 238.431 128.3C237.881 125.502 237.656 122.65 237.76 119.8C238.303 116.695 243.097 107.267 239.901 105.219C236.961 103.346 230.633 97.0233 226.238 105.411C225.795 106.28 225.411 107.179 225.087 108.1Z" fill="#F6B983"/>
<path d="M232.374 101.217C232.374 101.217 237.68 97.1834 241.834 100.497C244.423 102.578 242.921 108.42 242.314 108.948C242.314 108.948 244.998 110.197 244.855 112.341C244.711 114.486 242.506 116.935 238.047 118.744C238.047 118.744 235.235 119.096 236.785 114.998C238.335 110.901 235.986 109.316 234.228 111.365C233.589 112.429 233.191 113.62 233.061 114.854C232.822 115.687 231.703 115.11 231.703 115.11C231.703 115.11 234.244 108.436 231.384 107.267C229.143 106.565 226.78 106.341 224.448 106.611L228.587 99.7924L232.374 101.217Z" fill="#324476"/>
<path d="M222.595 114.438L221.939 117.079C221.939 117.079 215.819 121.097 219.143 124.106C222.467 127.115 232.966 126.939 233.062 121.001C233.157 115.062 233.429 111.061 233.429 111.061C232.91 112.911 232.025 114.636 230.824 116.135C229.258 117.591 228.331 112.95 222.595 114.438Z" fill="#324476"/>
<path d="M222.275 116.359C222.067 117.031 222.882 117.864 224.081 118.232C225.279 118.6 226.414 118.328 226.606 117.655C226.797 116.983 226.014 116.151 224.816 115.783C223.617 115.415 222.483 115.623 222.275 116.359Z" fill="#F6B983"/>
<path d="M238.031 128.14C238.031 128.14 254.171 128.028 251.007 145.186C249.088 155.633 247.78 166.183 247.092 176.783L222.659 177.679C222.659 177.679 217.545 149.092 219.207 140.977C220.869 132.861 229.322 128.716 229.322 128.716C230.816 129.051 232.347 129.191 233.876 129.132C237.632 129.132 238.031 128.14 238.031 128.14Z" fill="white"/>
<path d="M235.986 142.017C236.109 139.474 236.781 136.988 237.957 134.73C239.132 132.472 240.782 130.497 242.793 128.94C241.494 128.472 240.13 128.207 238.75 128.156C238.367 128.236 231.847 131.629 231.735 141.985L235.986 142.017Z" fill="#AD815B"/>
<path d="M224.496 141.345C224.389 136.684 226.11 132.168 229.29 128.764C228.519 128.966 227.769 129.245 227.053 129.596C226.318 130.028 221.62 133.23 220.182 141.233L224.496 141.345Z" fill="#AD815B"/>
<path d="M248.594 166.539C245.762 166.641 243.001 165.636 240.896 163.736C238.791 161.836 237.505 159.191 237.312 156.359C236.615 151.586 236.204 146.775 236.082 141.953C236.078 141.696 235.977 141.451 235.799 141.267C235.62 141.082 235.379 140.973 235.123 140.961L220.741 140.32C220.556 140.313 220.375 140.367 220.224 140.474C220.074 140.581 219.963 140.735 219.91 140.913C219.079 143.666 216.314 155.59 222.627 177.615L247.012 176.927L248.594 166.539Z" fill="#AD815B"/>
<path d="M267.227 277.542C267.137 277.542 267.052 277.508 266.987 277.446V277.334C266.987 277.334 266.827 276.998 266.619 276.486C266.602 276.445 266.592 276.401 266.591 276.356C266.59 276.311 266.598 276.267 266.615 276.225C266.631 276.184 266.655 276.146 266.686 276.114C266.717 276.081 266.754 276.056 266.795 276.038C266.836 276.02 266.88 276.01 266.925 276.009C266.969 276.009 267.014 276.017 267.055 276.033C267.097 276.049 267.135 276.074 267.167 276.105C267.199 276.136 267.225 276.173 267.243 276.214C267.722 277.27 267.722 277.27 267.562 277.446C267.517 277.487 267.464 277.516 267.405 277.533C267.347 277.55 267.286 277.553 267.227 277.542ZM266.268 275.414C266.202 275.412 266.139 275.392 266.085 275.355C266.031 275.318 265.989 275.266 265.964 275.205C265.74 274.741 265.501 274.213 265.245 273.605C265.226 273.565 265.215 273.522 265.213 273.477C265.211 273.433 265.217 273.389 265.232 273.348C265.247 273.306 265.27 273.268 265.3 273.235C265.329 273.202 265.365 273.175 265.405 273.157C265.49 273.119 265.586 273.116 265.673 273.149C265.76 273.182 265.83 273.248 265.868 273.333L266.587 274.933C266.625 275.018 266.628 275.115 266.595 275.202C266.562 275.289 266.496 275.359 266.412 275.398C266.367 275.42 266.316 275.426 266.268 275.414ZM264.926 272.484C264.86 272.483 264.797 272.463 264.743 272.426C264.689 272.389 264.647 272.337 264.622 272.276L263.887 270.676C263.857 270.592 263.86 270.501 263.894 270.419C263.929 270.338 263.993 270.272 264.074 270.236C264.154 270.199 264.246 270.195 264.329 270.223C264.413 270.251 264.483 270.31 264.526 270.388L265.245 271.988C265.283 272.073 265.286 272.17 265.253 272.257C265.22 272.344 265.154 272.414 265.069 272.452L264.926 272.484ZM263.631 269.603C263.565 269.604 263.5 269.587 263.444 269.553C263.387 269.519 263.341 269.47 263.312 269.411L262.592 267.811C262.553 267.728 262.548 267.633 262.578 267.546C262.608 267.459 262.671 267.388 262.752 267.346C262.837 267.308 262.933 267.306 263.02 267.339C263.107 267.372 263.177 267.438 263.216 267.522L263.951 269.123C263.989 269.208 263.991 269.304 263.958 269.391C263.925 269.478 263.86 269.549 263.775 269.587C263.751 269.622 263.718 269.65 263.679 269.667L263.631 269.603ZM262.321 266.738C262.255 266.739 262.19 266.722 262.133 266.688C262.077 266.654 262.031 266.605 262.001 266.546L261.282 264.945C261.263 264.904 261.253 264.86 261.251 264.815C261.249 264.77 261.256 264.725 261.272 264.682C261.287 264.64 261.311 264.601 261.342 264.568C261.372 264.535 261.409 264.508 261.45 264.489C261.491 264.47 261.535 264.46 261.58 264.458C261.625 264.456 261.67 264.463 261.712 264.479C261.755 264.494 261.793 264.518 261.827 264.549C261.86 264.579 261.886 264.616 261.905 264.657L262.64 266.258C262.678 266.343 262.681 266.439 262.648 266.526C262.615 266.613 262.549 266.684 262.465 266.722C262.44 266.757 262.407 266.784 262.369 266.802L262.321 266.738ZM261.01 263.889C260.943 263.887 260.878 263.866 260.822 263.83C260.765 263.793 260.72 263.742 260.691 263.681C260.451 263.153 260.211 262.624 259.956 262.08C259.918 261.995 259.915 261.899 259.948 261.812C259.981 261.725 260.047 261.655 260.132 261.616C260.216 261.578 260.313 261.575 260.399 261.608C260.486 261.641 260.557 261.707 260.595 261.792C260.835 262.32 261.074 262.849 261.33 263.393C261.368 263.478 261.371 263.574 261.338 263.661C261.305 263.748 261.239 263.819 261.154 263.857L261.01 263.889ZM259.684 261.024C259.618 261.025 259.553 261.008 259.497 260.974C259.44 260.94 259.394 260.891 259.364 260.832L258.629 259.231C258.59 259.148 258.585 259.053 258.615 258.967C258.645 258.88 258.707 258.808 258.789 258.767C258.872 258.728 258.967 258.723 259.053 258.753C259.14 258.783 259.211 258.845 259.253 258.927C259.508 259.471 259.748 259.999 260.004 260.528C260.042 260.613 260.044 260.709 260.011 260.796C259.978 260.883 259.912 260.953 259.828 260.992C259.806 261.032 259.773 261.066 259.732 261.088L259.684 261.024ZM258.358 258.175C258.291 258.178 258.226 258.161 258.169 258.127C258.112 258.093 258.067 258.043 258.038 257.983L257.287 256.382C257.249 256.297 257.246 256.201 257.279 256.114C257.312 256.027 257.378 255.956 257.463 255.918C257.546 255.879 257.64 255.874 257.727 255.904C257.814 255.934 257.885 255.996 257.926 256.078L258.661 257.679C258.7 257.762 258.705 257.856 258.676 257.943C258.646 258.03 258.583 258.101 258.502 258.143C258.479 258.183 258.446 258.217 258.406 258.239L258.358 258.175ZM256.999 255.326C256.935 255.328 256.872 255.311 256.818 255.276C256.764 255.242 256.721 255.192 256.696 255.134L255.945 253.533C255.906 253.45 255.901 253.355 255.931 253.268C255.96 253.182 256.023 253.11 256.105 253.069C256.145 253.047 256.19 253.034 256.236 253.031C256.281 253.027 256.328 253.033 256.371 253.048C256.414 253.063 256.454 253.087 256.488 253.118C256.522 253.149 256.549 253.187 256.568 253.229C256.824 253.741 257.063 254.269 257.319 254.829C257.358 254.912 257.363 255.007 257.333 255.094C257.303 255.181 257.241 255.252 257.159 255.294C257.132 255.336 257.093 255.369 257.047 255.39L256.999 255.326ZM255.657 252.493C255.591 252.494 255.526 252.476 255.47 252.442C255.413 252.408 255.367 252.359 255.338 252.3L254.571 250.7C254.533 250.615 254.53 250.518 254.563 250.431C254.596 250.344 254.662 250.274 254.746 250.236C254.787 250.214 254.832 250.201 254.877 250.198C254.923 250.194 254.969 250.2 255.013 250.215C255.056 250.23 255.096 250.254 255.13 250.285C255.164 250.316 255.191 250.354 255.21 250.396L255.961 251.996C255.982 252.037 255.995 252.082 255.999 252.128C256.002 252.173 255.996 252.22 255.981 252.263C255.966 252.307 255.943 252.347 255.912 252.381C255.881 252.415 255.843 252.442 255.801 252.46C255.779 252.501 255.746 252.534 255.705 252.557L255.657 252.493ZM254.283 249.659C254.217 249.661 254.152 249.643 254.096 249.609C254.039 249.575 253.993 249.526 253.963 249.467L253.196 247.867C253.173 247.787 253.178 247.701 253.212 247.625C253.246 247.549 253.305 247.487 253.38 247.451C253.454 247.414 253.539 247.406 253.62 247.426C253.7 247.447 253.771 247.495 253.819 247.563L254.586 249.163C254.608 249.204 254.621 249.249 254.624 249.294C254.628 249.34 254.622 249.386 254.607 249.43C254.592 249.474 254.568 249.514 254.537 249.547C254.506 249.581 254.469 249.609 254.427 249.627C254.405 249.668 254.371 249.701 254.331 249.723L254.283 249.659ZM252.941 246.874C252.875 246.875 252.81 246.858 252.753 246.824C252.697 246.79 252.651 246.741 252.621 246.682L251.838 245.082C251.797 244.998 251.789 244.902 251.816 244.813C251.842 244.724 251.902 244.648 251.982 244.601C252.067 244.562 252.164 244.556 252.253 244.586C252.342 244.616 252.417 244.678 252.461 244.761L253.244 246.362C253.283 246.445 253.288 246.54 253.258 246.627C253.229 246.713 253.166 246.785 253.084 246.826L252.941 246.874ZM251.502 244.073C251.44 244.068 251.38 244.048 251.327 244.015C251.274 243.981 251.23 243.936 251.199 243.881C250.927 243.337 250.655 242.825 250.384 242.28C250.345 242.197 250.34 242.103 250.37 242.016C250.399 241.929 250.462 241.858 250.544 241.816C250.583 241.794 250.627 241.78 250.672 241.776C250.717 241.771 250.763 241.776 250.806 241.789C250.849 241.803 250.889 241.825 250.924 241.854C250.959 241.884 250.987 241.92 251.007 241.96L251.822 243.561C251.861 243.644 251.866 243.739 251.836 243.826C251.806 243.912 251.744 243.984 251.662 244.025C251.619 244.069 251.563 244.097 251.502 244.105V244.073ZM250.032 241.288C249.969 241.286 249.907 241.268 249.854 241.234C249.801 241.2 249.757 241.152 249.729 241.096L248.882 239.495C248.839 239.414 248.829 239.319 248.852 239.23C248.876 239.142 248.932 239.065 249.009 239.015C249.05 238.993 249.095 238.979 249.142 238.974C249.188 238.969 249.235 238.973 249.279 238.987C249.324 239 249.365 239.022 249.401 239.052C249.437 239.082 249.467 239.118 249.489 239.159L250.336 240.76C250.358 240.799 250.373 240.842 250.379 240.886C250.385 240.931 250.382 240.976 250.37 241.019C250.358 241.062 250.337 241.103 250.31 241.138C250.282 241.173 250.247 241.202 250.208 241.224C250.159 241.272 250.099 241.305 250.032 241.32V241.288ZM248.434 238.551C248.375 238.55 248.317 238.533 248.267 238.502C248.216 238.471 248.175 238.427 248.147 238.375C247.763 237.767 247.443 237.303 247.188 236.966C247.15 236.932 247.12 236.89 247.1 236.843C247.08 236.796 247.071 236.745 247.073 236.694C247.074 236.643 247.087 236.593 247.11 236.547C247.133 236.502 247.165 236.462 247.205 236.43C247.245 236.398 247.292 236.375 247.341 236.363C247.391 236.351 247.442 236.35 247.492 236.36C247.542 236.37 247.59 236.391 247.631 236.421C247.672 236.451 247.706 236.49 247.731 236.534C248.095 237.01 248.431 237.507 248.738 238.023C248.786 238.102 248.801 238.196 248.78 238.286C248.759 238.376 248.704 238.454 248.626 238.503C248.579 238.541 248.524 238.568 248.466 238.583L248.434 238.551ZM246.357 236.326H246.213C246.085 236.267 245.974 236.176 245.893 236.061C245.812 235.945 245.762 235.81 245.75 235.67C245.75 235.318 245.973 234.966 246.517 234.469C246.549 234.439 246.587 234.415 246.629 234.399C246.671 234.384 246.715 234.376 246.76 234.378C246.804 234.379 246.848 234.39 246.888 234.408C246.929 234.427 246.966 234.453 246.996 234.485C247.026 234.518 247.05 234.556 247.066 234.598C247.081 234.64 247.089 234.684 247.087 234.729C247.086 234.773 247.076 234.817 247.057 234.858C247.039 234.899 247.013 234.935 246.98 234.966C246.485 235.446 246.453 235.622 246.453 235.67C246.453 235.718 246.453 235.67 246.581 235.782C246.662 235.823 246.725 235.895 246.755 235.982C246.784 236.068 246.779 236.163 246.74 236.246C246.698 236.296 246.642 236.332 246.58 236.352C246.518 236.372 246.452 236.374 246.389 236.358L246.357 236.326ZM247.763 234.053C247.708 234.056 247.654 234.045 247.604 234.023C247.554 234.001 247.51 233.967 247.475 233.925C247.414 233.857 247.379 233.769 247.379 233.677C247.379 233.585 247.414 233.497 247.475 233.429L247.587 233.349C248.003 233.013 248.434 232.677 248.802 232.341C248.836 232.307 248.876 232.281 248.921 232.263C248.966 232.246 249.013 232.238 249.061 232.24C249.109 232.242 249.156 232.253 249.199 232.274C249.242 232.294 249.281 232.323 249.312 232.359C249.344 232.395 249.368 232.437 249.382 232.483C249.397 232.528 249.403 232.576 249.398 232.624C249.394 232.672 249.38 232.718 249.357 232.76C249.334 232.802 249.303 232.839 249.265 232.869C248.882 233.205 248.45 233.557 248.019 233.893L247.907 233.989C247.875 234.023 247.837 234.05 247.795 234.069L247.763 234.053ZM250.032 231.908C249.969 231.907 249.908 231.889 249.855 231.856C249.801 231.823 249.758 231.777 249.728 231.721C249.699 231.666 249.685 231.603 249.688 231.54C249.691 231.478 249.71 231.417 249.745 231.364C249.931 231.143 250.072 230.888 250.16 230.612H250.032C249.987 230.61 249.942 230.599 249.901 230.579C249.86 230.559 249.823 230.531 249.793 230.497C249.763 230.462 249.741 230.422 249.727 230.379C249.713 230.335 249.708 230.289 249.713 230.244C249.717 230.197 249.73 230.152 249.751 230.111C249.773 230.07 249.802 230.033 249.838 230.004C249.873 229.974 249.915 229.951 249.959 229.938C250.003 229.924 250.05 229.919 250.096 229.924C250.799 229.924 250.863 230.404 250.863 230.596C250.795 231.034 250.607 231.444 250.32 231.78C250.293 231.825 250.255 231.863 250.211 231.891C250.167 231.919 250.116 231.936 250.064 231.94L250.032 231.908ZM245.59 231.14C244.615 231.028 244.519 230.468 244.519 230.228C244.525 229.921 244.638 229.627 244.839 229.395C244.898 229.334 244.978 229.297 245.062 229.29C245.147 229.284 245.232 229.308 245.3 229.359C245.368 229.41 245.416 229.483 245.434 229.567C245.452 229.65 245.439 229.737 245.398 229.812C245.292 229.927 245.225 230.072 245.206 230.228C245.206 230.388 245.558 230.436 245.67 230.452C245.716 230.458 245.761 230.473 245.801 230.496C245.842 230.52 245.877 230.551 245.905 230.588C245.934 230.625 245.954 230.668 245.966 230.713C245.977 230.758 245.98 230.806 245.973 230.852C245.971 230.896 245.96 230.939 245.942 230.979C245.923 231.019 245.896 231.055 245.864 231.085C245.831 231.115 245.793 231.138 245.751 231.153C245.71 231.168 245.666 231.174 245.622 231.172L245.59 231.14ZM246.964 231.14C246.884 231.138 246.806 231.108 246.745 231.055C246.684 231.003 246.643 230.931 246.628 230.852C246.615 230.761 246.637 230.668 246.691 230.593C246.744 230.518 246.825 230.468 246.916 230.452H247.3L248.626 230.196C248.711 230.194 248.793 230.223 248.858 230.277C248.923 230.331 248.967 230.407 248.98 230.491C248.994 230.575 248.977 230.661 248.932 230.733C248.888 230.805 248.819 230.859 248.738 230.884L247.443 231.14H247.028H246.964ZM246.085 229.059C246.031 229.061 245.977 229.05 245.927 229.028C245.877 229.006 245.833 228.973 245.797 228.931C245.732 228.865 245.695 228.776 245.695 228.683C245.695 228.59 245.732 228.501 245.797 228.435C246.005 228.275 246.245 228.115 246.501 227.955C246.744 227.818 246.97 227.652 247.172 227.459C247.201 227.416 247.24 227.38 247.285 227.354C247.33 227.328 247.38 227.312 247.432 227.308C247.484 227.303 247.536 227.311 247.585 227.329C247.634 227.347 247.678 227.376 247.714 227.414C247.75 227.451 247.777 227.496 247.794 227.546C247.811 227.595 247.816 227.647 247.81 227.699C247.804 227.751 247.787 227.801 247.759 227.845C247.732 227.889 247.695 227.927 247.651 227.955C247.41 228.182 247.147 228.385 246.868 228.563C246.643 228.696 246.424 228.84 246.213 228.995C246.182 229.005 246.15 229.01 246.117 229.011L246.085 229.059ZM248.194 226.882C248.104 226.867 248.023 226.816 247.969 226.741C247.915 226.666 247.893 226.573 247.907 226.482C247.907 226.482 247.907 226.386 247.907 226.322C247.905 226.145 247.839 225.975 247.721 225.843C247.604 225.71 247.443 225.625 247.268 225.602C247.179 225.579 247.101 225.524 247.051 225.447C247.001 225.37 246.981 225.277 246.996 225.186C247.019 225.097 247.074 225.019 247.151 224.969C247.228 224.918 247.321 224.899 247.411 224.914C247.742 224.973 248.041 225.147 248.257 225.404C248.473 225.661 248.592 225.986 248.594 226.322C248.602 226.413 248.602 226.504 248.594 226.594C248.569 226.67 248.519 226.735 248.452 226.779C248.385 226.822 248.306 226.842 248.226 226.834L248.194 226.882ZM245.318 226.082C245.089 226.071 244.866 226.003 244.67 225.882C244.475 225.762 244.313 225.594 244.199 225.394C244.173 225.355 244.154 225.312 244.144 225.265C244.134 225.219 244.134 225.172 244.143 225.125C244.152 225.079 244.17 225.035 244.196 224.996C244.222 224.957 244.256 224.923 244.295 224.898C244.372 224.848 244.465 224.831 244.554 224.849C244.644 224.866 244.723 224.918 244.775 224.994C244.951 225.25 245.142 225.394 245.318 225.394C245.442 225.384 245.563 225.346 245.67 225.282H245.797C245.838 225.259 245.883 225.245 245.93 225.24C245.976 225.236 246.023 225.24 246.067 225.253C246.112 225.267 246.153 225.289 246.189 225.319C246.225 225.348 246.255 225.385 246.277 225.426C246.299 225.466 246.313 225.509 246.317 225.555C246.322 225.6 246.318 225.645 246.304 225.689C246.291 225.732 246.269 225.772 246.239 225.807C246.21 225.842 246.174 225.87 246.133 225.89H246.021C245.817 226.007 245.585 226.068 245.35 226.066L245.318 226.082ZM243.912 224.273C243.84 224.273 243.77 224.249 243.713 224.206C243.655 224.163 243.613 224.102 243.592 224.033C243.411 223.462 243.267 222.879 243.161 222.289C243.154 222.202 243.18 222.116 243.233 222.048C243.286 221.979 243.362 221.932 243.447 221.916C243.532 221.9 243.62 221.916 243.694 221.962C243.768 222.007 243.823 222.078 243.848 222.161C243.976 222.801 244.104 223.361 244.247 223.761C244.273 223.848 244.264 223.942 244.222 224.022C244.18 224.103 244.109 224.164 244.024 224.193L243.912 224.273ZM243.289 221.2C243.203 221.201 243.12 221.171 243.056 221.115C242.991 221.059 242.949 220.981 242.937 220.896C242.857 220.368 242.793 219.776 242.729 219.151C242.725 219.105 242.73 219.058 242.743 219.014C242.757 218.97 242.78 218.928 242.809 218.893C242.839 218.857 242.875 218.827 242.917 218.806C242.958 218.784 243.003 218.771 243.049 218.767C243.141 218.762 243.232 218.793 243.303 218.852C243.374 218.911 243.421 218.995 243.432 219.087C243.432 219.696 243.56 220.272 243.624 220.8C243.638 220.891 243.616 220.984 243.562 221.059C243.508 221.134 243.427 221.184 243.337 221.2H243.289ZM242.953 217.999C242.866 217.996 242.783 217.962 242.719 217.903C242.654 217.845 242.613 217.765 242.602 217.679C242.602 217.119 242.602 216.526 242.49 215.918C242.485 215.873 242.49 215.827 242.504 215.783C242.518 215.74 242.541 215.7 242.57 215.665C242.6 215.631 242.637 215.603 242.678 215.583C242.719 215.563 242.764 215.552 242.809 215.55C242.855 215.548 242.902 215.555 242.945 215.571C242.989 215.586 243.028 215.61 243.063 215.642C243.097 215.673 243.124 215.711 243.144 215.752C243.164 215.794 243.175 215.84 243.177 215.886C243.177 216.494 243.177 217.071 243.305 217.615C243.309 217.661 243.304 217.708 243.291 217.752C243.277 217.797 243.254 217.838 243.225 217.874C243.195 217.909 243.159 217.939 243.117 217.96C243.076 217.982 243.031 217.995 242.985 217.999H242.953ZM242.761 214.798C242.671 214.798 242.584 214.763 242.518 214.7C242.453 214.638 242.414 214.552 242.41 214.462C242.41 213.997 242.41 213.437 242.41 212.781C242.408 212.735 242.415 212.69 242.431 212.647C242.446 212.605 242.471 212.566 242.502 212.533C242.534 212.5 242.571 212.474 242.613 212.456C242.655 212.438 242.7 212.429 242.745 212.429C242.792 212.427 242.838 212.434 242.881 212.449C242.925 212.465 242.965 212.489 242.999 212.52C243.033 212.552 243.06 212.589 243.08 212.631C243.1 212.673 243.111 212.719 243.113 212.765C243.113 213.405 243.113 213.965 243.113 214.366V214.446C243.113 214.538 243.079 214.627 243.017 214.695C242.955 214.763 242.869 214.806 242.777 214.814L242.761 214.798ZM242.649 211.596C242.559 211.597 242.472 211.562 242.406 211.499C242.341 211.436 242.302 211.351 242.298 211.26C242.298 210.716 242.298 210.124 242.298 209.5C242.298 209.406 242.335 209.317 242.401 209.251C242.467 209.185 242.556 209.147 242.649 209.147C242.695 209.145 242.74 209.152 242.783 209.168C242.825 209.184 242.864 209.209 242.897 209.24C242.93 209.271 242.956 209.309 242.974 209.351C242.992 209.393 243.001 209.438 243.001 209.484C243.001 210.108 243.001 210.7 243.001 211.244C243.003 211.29 242.996 211.335 242.98 211.378C242.964 211.42 242.94 211.459 242.909 211.492C242.877 211.525 242.839 211.551 242.798 211.569C242.756 211.587 242.711 211.596 242.665 211.596H242.649ZM242.649 208.395C242.559 208.395 242.472 208.36 242.406 208.298C242.341 208.235 242.302 208.15 242.298 208.059V206.314C242.315 206.236 242.358 206.165 242.421 206.115C242.483 206.064 242.561 206.037 242.641 206.037C242.722 206.037 242.8 206.064 242.862 206.115C242.925 206.165 242.968 206.236 242.985 206.314V208.059C242.987 208.104 242.98 208.15 242.964 208.193C242.948 208.235 242.924 208.274 242.893 208.307C242.861 208.34 242.823 208.366 242.782 208.384C242.74 208.402 242.695 208.411 242.649 208.411V208.395ZM242.649 205.194C242.559 205.19 242.474 205.151 242.411 205.085C242.349 205.02 242.314 204.932 242.314 204.842V203.097C242.312 203.052 242.319 203.006 242.335 202.964C242.351 202.921 242.375 202.882 242.406 202.849C242.438 202.816 242.475 202.79 242.517 202.772C242.559 202.754 242.604 202.745 242.649 202.745C242.742 202.745 242.831 202.779 242.899 202.841C242.967 202.903 243.009 202.989 243.017 203.081V204.826C243.017 204.918 242.983 205.007 242.921 205.075C242.859 205.144 242.773 205.186 242.681 205.194H242.649ZM242.649 201.993C242.604 201.995 242.559 201.988 242.516 201.972C242.474 201.956 242.435 201.931 242.402 201.9C242.369 201.869 242.343 201.831 242.325 201.789C242.307 201.747 242.298 201.702 242.298 201.656V199.912C242.298 199.819 242.332 199.73 242.394 199.662C242.456 199.594 242.542 199.552 242.633 199.544C242.726 199.55 242.813 199.589 242.88 199.654C242.947 199.718 242.99 199.803 243.001 199.896C243.001 200.472 243.001 201.064 243.001 201.64C243.003 201.686 242.996 201.731 242.98 201.774C242.964 201.817 242.94 201.856 242.909 201.889C242.877 201.922 242.839 201.948 242.798 201.966C242.756 201.983 242.711 201.993 242.665 201.993H242.649ZM242.554 198.791C242.463 198.787 242.378 198.748 242.315 198.683C242.253 198.617 242.218 198.53 242.218 198.439V196.695C242.216 196.649 242.223 196.604 242.239 196.561C242.255 196.518 242.279 196.479 242.31 196.446C242.342 196.414 242.38 196.387 242.421 196.369C242.463 196.352 242.508 196.342 242.554 196.342C242.599 196.34 242.644 196.347 242.687 196.363C242.729 196.379 242.768 196.404 242.801 196.435C242.834 196.466 242.86 196.504 242.878 196.546C242.896 196.588 242.905 196.633 242.905 196.679V198.423C242.907 198.469 242.9 198.516 242.885 198.559C242.869 198.603 242.845 198.643 242.814 198.677C242.782 198.711 242.745 198.739 242.703 198.759C242.661 198.778 242.616 198.789 242.57 198.791H242.554ZM242.554 195.59C242.508 195.592 242.463 195.585 242.42 195.569C242.378 195.553 242.339 195.529 242.306 195.498C242.273 195.466 242.247 195.428 242.229 195.386C242.211 195.345 242.202 195.299 242.202 195.254V193.509C242.2 193.463 242.207 193.417 242.223 193.373C242.238 193.33 242.262 193.29 242.294 193.256C242.325 193.221 242.362 193.194 242.404 193.174C242.446 193.154 242.491 193.143 242.538 193.141C242.628 193.141 242.715 193.176 242.781 193.239C242.846 193.301 242.885 193.387 242.889 193.477C242.889 194.07 242.889 194.646 242.889 195.238C242.889 195.331 242.852 195.421 242.786 195.487C242.72 195.553 242.631 195.59 242.538 195.59H242.554ZM242.442 192.389C242.354 192.385 242.271 192.348 242.209 192.286C242.147 192.224 242.11 192.141 242.106 192.053C242.106 191.46 242.106 190.868 242.106 190.308C242.104 190.262 242.111 190.216 242.127 190.172C242.142 190.128 242.167 190.088 242.198 190.054C242.229 190.02 242.266 189.992 242.308 189.973C242.35 189.953 242.396 189.942 242.442 189.94C242.488 189.935 242.535 189.941 242.58 189.956C242.624 189.971 242.665 189.995 242.7 190.026C242.735 190.058 242.762 190.097 242.781 190.14C242.8 190.183 242.809 190.229 242.809 190.276C242.809 190.852 242.809 191.428 242.809 192.021C242.811 192.067 242.804 192.113 242.789 192.157C242.773 192.2 242.749 192.24 242.718 192.274C242.687 192.309 242.649 192.336 242.607 192.356C242.565 192.376 242.52 192.387 242.474 192.389H242.442ZM242.33 189.188C242.284 189.19 242.239 189.183 242.197 189.167C242.154 189.151 242.115 189.126 242.082 189.095C242.049 189.064 242.023 189.026 242.005 188.984C241.987 188.942 241.978 188.897 241.978 188.851C241.978 188.259 241.978 187.683 241.978 187.107C241.974 187.062 241.979 187.017 241.993 186.974C242.007 186.932 242.03 186.893 242.06 186.859C242.09 186.826 242.127 186.8 242.168 186.782C242.209 186.764 242.253 186.754 242.298 186.755C242.344 186.748 242.39 186.751 242.435 186.764C242.479 186.777 242.521 186.799 242.556 186.83C242.591 186.86 242.618 186.898 242.637 186.94C242.656 186.982 242.666 187.028 242.665 187.075C242.665 187.651 242.665 188.227 242.745 188.835C242.75 188.88 242.745 188.925 242.731 188.968C242.717 189.01 242.694 189.05 242.664 189.083C242.634 189.116 242.597 189.143 242.556 189.161C242.515 189.179 242.471 189.188 242.426 189.188H242.33ZM242.17 185.986C242.08 185.986 241.992 185.952 241.927 185.889C241.861 185.826 241.823 185.741 241.818 185.65C241.818 185.042 241.818 184.466 241.707 183.906C241.706 183.813 241.741 183.724 241.803 183.656C241.865 183.588 241.95 183.545 242.042 183.537C242.088 183.533 242.133 183.538 242.177 183.552C242.22 183.566 242.26 183.588 242.295 183.618C242.329 183.648 242.357 183.685 242.377 183.726C242.397 183.767 242.408 183.812 242.41 183.857C242.41 184.418 242.49 184.994 242.522 185.618C242.522 185.711 242.488 185.8 242.425 185.868C242.363 185.936 242.278 185.978 242.186 185.986H242.17ZM241.962 182.785C241.874 182.785 241.789 182.753 241.724 182.693C241.659 182.634 241.619 182.553 241.611 182.465C241.611 181.793 241.499 181.216 241.435 180.736C241.428 180.69 241.431 180.643 241.442 180.597C241.454 180.552 241.475 180.51 241.503 180.472C241.531 180.435 241.567 180.404 241.607 180.38C241.648 180.357 241.692 180.342 241.739 180.336C241.829 180.327 241.92 180.354 241.992 180.41C242.063 180.467 242.11 180.55 242.122 180.64C242.122 181.136 242.25 181.729 242.298 182.401C242.302 182.446 242.297 182.492 242.283 182.536C242.27 182.579 242.247 182.619 242.217 182.654C242.187 182.688 242.151 182.716 242.11 182.736C242.068 182.756 242.024 182.767 241.978 182.769L241.962 182.785ZM241.547 179.584C241.468 179.585 241.391 179.559 241.33 179.509C241.268 179.459 241.226 179.389 241.211 179.312C241.211 179.312 241.211 179.312 241.211 179.216C241.069 178.661 240.988 178.092 240.972 177.519C240.972 177.426 241.009 177.336 241.075 177.27C241.14 177.204 241.23 177.167 241.323 177.167C241.416 177.167 241.506 177.204 241.572 177.27C241.638 177.336 241.675 177.426 241.675 177.519C241.684 178.059 241.754 178.595 241.882 179.12C241.89 179.162 241.89 179.205 241.882 179.248C241.894 179.292 241.897 179.338 241.89 179.383C241.884 179.429 241.868 179.472 241.844 179.511C241.82 179.55 241.789 179.584 241.751 179.61C241.714 179.636 241.671 179.655 241.627 179.664L241.547 179.584ZM241.291 176.383C241.199 176.375 241.114 176.332 241.052 176.264C240.99 176.196 240.955 176.107 240.956 176.014C240.956 175.47 240.956 174.878 241.083 174.254C241.072 174.202 241.073 174.149 241.085 174.098C241.097 174.047 241.12 173.999 241.153 173.958C241.186 173.917 241.228 173.884 241.275 173.861C241.323 173.839 241.374 173.827 241.427 173.827C241.479 173.827 241.531 173.839 241.579 173.861C241.626 173.884 241.668 173.917 241.701 173.958C241.734 173.999 241.757 174.047 241.769 174.098C241.781 174.149 241.782 174.202 241.771 174.254C241.771 174.878 241.675 175.454 241.659 175.982C241.82 176.076 241.937 176.229 241.985 176.41C242.033 176.59 242.008 176.781 241.914 176.943C241.821 177.104 241.668 177.222 241.488 177.27C241.308 177.318 241.117 177.292 240.956 177.199L241.291 176.383ZM241.563 173.181C241.472 173.169 241.39 173.122 241.333 173.051C241.277 172.979 241.25 172.888 241.259 172.797C241.259 172.237 241.419 171.661 241.515 171.052C241.54 170.971 241.594 170.902 241.666 170.858C241.738 170.813 241.823 170.796 241.907 170.81C241.991 170.823 242.066 170.867 242.121 170.932C242.175 170.997 242.204 171.08 242.202 171.164C242.106 171.757 242.01 172.333 241.946 172.877C242.103 172.964 242.219 173.11 242.268 173.283C242.318 173.455 242.297 173.64 242.21 173.798C242.123 173.955 241.977 174.071 241.805 174.12C241.633 174.17 241.448 174.149 241.291 174.062L241.563 173.181ZM242.058 170.076C241.966 170.057 241.885 170.003 241.832 169.925C241.778 169.848 241.756 169.753 241.771 169.66C241.882 169.116 241.994 168.523 242.106 167.947C242.114 167.901 242.13 167.857 242.156 167.818C242.181 167.778 242.215 167.745 242.254 167.719C242.293 167.694 242.337 167.676 242.383 167.669C242.429 167.661 242.476 167.663 242.522 167.675C242.609 167.694 242.686 167.747 242.737 167.821C242.787 167.895 242.808 167.986 242.793 168.075C242.665 168.668 242.57 169.244 242.458 169.788C242.612 169.877 242.725 170.024 242.772 170.197C242.818 170.369 242.794 170.553 242.705 170.708C242.616 170.863 242.47 170.976 242.297 171.023C242.125 171.07 241.941 171.046 241.787 170.956L242.058 170.076ZM242.665 166.987C242.574 166.968 242.495 166.913 242.444 166.835C242.393 166.757 242.375 166.662 242.394 166.571C242.617 165.53 242.777 164.858 242.793 164.858C242.803 164.813 242.821 164.771 242.847 164.733C242.873 164.696 242.907 164.664 242.946 164.64C242.985 164.616 243.028 164.601 243.073 164.594C243.119 164.587 243.165 164.59 243.209 164.602C243.253 164.611 243.296 164.63 243.333 164.656C243.371 164.682 243.402 164.716 243.426 164.755C243.45 164.794 243.466 164.837 243.472 164.882C243.479 164.928 243.476 164.974 243.464 165.018C243.464 165.018 243.305 165.69 243.081 166.715C243.233 166.806 243.344 166.954 243.387 167.127C243.431 167.299 243.404 167.482 243.313 167.635C243.221 167.788 243.073 167.898 242.901 167.942C242.729 167.985 242.546 167.958 242.394 167.867L242.665 166.987Z" fill="#FCDB83"/>
<path d="M225.615 174.958L220.182 173.117C220.089 173.074 219.988 173.052 219.886 173.052C219.784 173.052 219.683 173.074 219.59 173.117L205.48 156.487C205.545 156.311 205.545 156.118 205.48 155.943L204.282 150.324C204.253 150.186 204.187 150.057 204.091 149.953C203.996 149.849 203.874 149.772 203.738 149.732L198.273 147.971C198.14 147.925 197.997 147.916 197.86 147.944C197.722 147.972 197.594 148.037 197.49 148.131L196.675 148.868L199.408 149.716C199.471 149.734 199.528 149.769 199.573 149.817C199.618 149.865 199.649 149.924 199.663 149.988L200.239 152.677C200.252 152.743 200.249 152.811 200.23 152.876C200.21 152.94 200.175 152.998 200.127 153.045L198.097 154.886C198.039 154.92 197.973 154.938 197.906 154.938C197.838 154.938 197.772 154.92 197.714 154.886L195.109 154.054C195.046 154.03 194.99 153.991 194.946 153.941C194.901 153.891 194.87 153.831 194.853 153.766L194.278 151.077L193.351 151.909C193.25 152.006 193.174 152.128 193.133 152.262C193.091 152.396 193.083 152.539 193.112 152.677L194.326 158.311C194.358 158.449 194.425 158.575 194.52 158.679C194.615 158.783 194.735 158.86 194.869 158.904L200.335 160.664C200.544 160.751 200.78 160.751 200.99 160.664L214.988 177.215C214.873 177.395 214.833 177.614 214.876 177.823L215.995 183.473C216.024 183.612 216.089 183.74 216.185 183.845C216.281 183.949 216.403 184.025 216.538 184.066L221.971 185.922C222.105 185.965 222.247 185.973 222.384 185.945C222.521 185.917 222.649 185.854 222.754 185.762L223.697 184.93L221.093 184.05C221.03 184.026 220.974 183.987 220.929 183.937C220.885 183.887 220.853 183.827 220.837 183.761L220.182 181.072C220.164 181.005 220.167 180.934 220.19 180.869C220.213 180.804 220.254 180.746 220.309 180.704L222.355 178.896C222.413 178.862 222.479 178.844 222.547 178.844C222.614 178.844 222.68 178.862 222.738 178.896L225.327 179.776C225.394 179.792 225.455 179.828 225.5 179.88C225.546 179.931 225.575 179.996 225.583 180.064L226.126 182.753L226.941 182.049C227.05 181.956 227.131 181.836 227.176 181.7C227.221 181.565 227.228 181.42 227.197 181.28L226.078 175.646C226.07 175.501 226.022 175.36 225.94 175.239C225.859 175.118 225.746 175.021 225.615 174.958Z" fill="#FCDB83"/>
<path d="M244.152 130.028C247.587 129.564 250.959 132.093 254.251 139.632C257.543 147.171 264.606 158.023 253.516 166.203C242.426 174.382 231.368 173.245 214.397 170.044V164.762C214.397 164.762 245.11 164.426 244.871 156.343C244.679 149.604 232.966 131.485 244.152 130.028Z" fill="#F6B983"/>
<path d="M215.5 176.046C215.43 176.049 215.361 176.036 215.298 176.008C215.234 175.981 215.177 175.939 215.132 175.886L201.805 160.072C201.722 159.983 201.675 159.866 201.675 159.744C201.675 159.622 201.722 159.505 201.805 159.416C201.892 159.329 202.009 159.28 202.132 159.28C202.255 159.28 202.373 159.329 202.46 159.416L215.787 175.246C215.869 175.332 215.915 175.447 215.915 175.566C215.915 175.685 215.869 175.8 215.787 175.886C215.753 175.931 215.709 175.969 215.66 175.996C215.61 176.024 215.556 176.041 215.5 176.046Z" fill="#324476"/>
<path d="M218.04 174.078C217.907 174.072 217.781 174.015 217.689 173.918L204.361 158.087C204.313 158.043 204.274 157.988 204.248 157.928C204.222 157.867 204.209 157.801 204.21 157.735C204.211 157.669 204.227 157.604 204.255 157.544C204.284 157.484 204.325 157.432 204.375 157.389C204.426 157.346 204.485 157.315 204.548 157.297C204.612 157.279 204.679 157.275 204.744 157.285C204.809 157.295 204.872 157.319 204.927 157.356C204.982 157.392 205.029 157.439 205.065 157.495L218.392 173.245C218.475 173.334 218.521 173.452 218.521 173.573C218.521 173.695 218.475 173.813 218.392 173.902C218.35 173.956 218.297 174 218.236 174.03C218.175 174.061 218.108 174.077 218.04 174.078Z" fill="#324476"/>
<path d="M214.397 164.826C214.397 164.826 207.014 159.8 204.282 162.281C201.549 164.762 205.544 168.684 206.631 169.26C208.041 169.797 209.533 170.084 211.041 170.108C212.159 170.167 213.279 170.167 214.397 170.108V164.826Z" fill="#F6B983"/>
<path d="M160.001 203.177H159.953C159.203 203.177 158.595 203.786 158.595 204.538V241C158.595 241.751 159.203 242.361 159.953 242.361H160.001C160.751 242.361 161.359 241.751 161.359 241V204.538C161.359 203.786 160.751 203.177 160.001 203.177Z" fill="url(#paint1_linear_9_1265)"/>
<path d="M153.401 203.177H153.353C152.603 203.177 151.995 203.786 151.995 204.538V241C151.995 241.751 152.603 242.361 153.353 242.361H153.401C154.152 242.361 154.76 241.751 154.76 241V204.538C154.76 203.786 154.152 203.177 153.401 203.177Z" fill="url(#paint2_linear_9_1265)"/>
<path d="M165.738 85.883H165.418C160.635 85.883 156.757 89.7671 156.757 94.5584V107.588C156.757 112.379 160.635 116.263 165.418 116.263H165.738C170.521 116.263 174.399 112.379 174.399 107.588V94.5584C174.399 89.7671 170.521 85.883 165.738 85.883Z" fill="url(#paint3_linear_9_1265)"/>
<path d="M177.851 107.411H153.305C153.129 107.411 152.986 107.555 152.986 107.732V113.046C152.986 113.222 153.129 113.366 153.305 113.366H177.851C178.027 113.366 178.17 113.222 178.17 113.046V107.732C178.17 107.555 178.027 107.411 177.851 107.411Z" fill="url(#paint4_linear_9_1265)"/>
<path d="M185.042 113.126H146.115C145.929 113.126 145.779 113.276 145.779 113.462V116.887C145.779 117.073 145.929 117.223 146.115 117.223H185.042C185.227 117.223 185.377 117.073 185.377 116.887V113.462C185.377 113.276 185.227 113.126 185.042 113.126Z" fill="url(#paint5_linear_9_1265)"/>
<path d="M187.375 116.663H143.765C142.768 116.663 141.96 117.473 141.96 118.472V205.674C141.96 206.673 142.768 207.483 143.765 207.483H187.375C188.372 207.483 189.181 206.673 189.181 205.674V118.472C189.181 117.473 188.372 116.663 187.375 116.663Z" fill="url(#paint6_linear_9_1265)"/>
<path d="M189.181 125.707H141.96V204.362H189.181V125.707Z" fill="url(#paint7_linear_9_1265)"/>
<path d="M173.824 183.233H157.332C157.015 183.233 156.757 183.491 156.757 183.809V190.132C156.757 190.45 157.015 190.708 157.332 190.708H173.824C174.142 190.708 174.399 190.45 174.399 190.132V183.809C174.399 183.491 174.142 183.233 173.824 183.233Z" fill="#324476"/>
<path d="M173.84 190.932H157.332C157.226 190.932 157.121 190.911 157.023 190.87C156.925 190.829 156.836 190.768 156.762 190.692C156.687 190.616 156.629 190.526 156.59 190.427C156.55 190.328 156.531 190.222 156.533 190.116V183.826C156.531 183.719 156.55 183.613 156.59 183.514C156.629 183.415 156.687 183.325 156.762 183.249C156.836 183.173 156.925 183.113 157.023 183.072C157.121 183.03 157.226 183.009 157.332 183.009H173.84C174.053 183.013 174.256 183.101 174.406 183.254C174.555 183.407 174.639 183.612 174.639 183.826V190.116C174.639 190.33 174.555 190.535 174.406 190.688C174.256 190.84 174.053 190.928 173.84 190.932ZM157.332 183.457C157.285 183.457 157.238 183.467 157.194 183.486C157.15 183.504 157.111 183.532 157.078 183.566C157.045 183.601 157.02 183.641 157.003 183.686C156.986 183.73 156.979 183.778 156.981 183.826V190.116C156.979 190.164 156.986 190.211 157.003 190.256C157.02 190.3 157.045 190.341 157.078 190.375C157.111 190.41 157.15 190.437 157.194 190.456C157.238 190.475 157.285 190.484 157.332 190.484H173.84C173.887 190.484 173.934 190.475 173.978 190.456C174.022 190.437 174.061 190.41 174.094 190.375C174.127 190.341 174.153 190.3 174.169 190.256C174.186 190.211 174.194 190.164 174.191 190.116V183.826C174.194 183.778 174.186 183.73 174.169 183.686C174.153 183.641 174.127 183.601 174.094 183.566C174.061 183.532 174.022 183.504 173.978 183.486C173.934 183.467 173.887 183.457 173.84 183.457H157.332Z" fill="#242149"/>
<path d="M163.069 186.915L163.245 185.106H165.163V185.394H163.565L163.437 186.643C163.649 186.5 163.9 186.427 164.156 186.435C164.309 186.428 164.462 186.453 164.605 186.508C164.748 186.563 164.878 186.647 164.987 186.755C165.193 187 165.302 187.314 165.29 187.635C165.306 187.961 165.197 188.282 164.987 188.531C164.878 188.644 164.746 188.732 164.599 188.787C164.453 188.842 164.296 188.864 164.14 188.851C163.851 188.868 163.566 188.777 163.341 188.595C163.233 188.498 163.146 188.38 163.085 188.248C163.025 188.116 162.992 187.972 162.989 187.827H163.277C163.294 188.046 163.391 188.251 163.549 188.403C163.716 188.537 163.926 188.606 164.14 188.595C164.255 188.603 164.37 188.585 164.478 188.544C164.585 188.502 164.683 188.438 164.763 188.355C164.914 188.147 164.988 187.892 164.971 187.635C164.98 187.388 164.894 187.148 164.731 186.963C164.648 186.878 164.549 186.811 164.439 186.767C164.329 186.723 164.211 186.702 164.092 186.707C163.965 186.689 163.836 186.689 163.708 186.707C163.58 186.755 163.461 186.825 163.357 186.915H163.069Z" fill="#F09886"/>
<path d="M166.042 186.915L166.233 185.106H168.135V185.394H166.537L166.393 186.643C166.605 186.5 166.857 186.427 167.112 186.435C167.265 186.428 167.418 186.453 167.561 186.508C167.704 186.563 167.834 186.647 167.943 186.755C168.139 187.009 168.245 187.322 168.245 187.643C168.245 187.964 168.139 188.277 167.943 188.531C167.837 188.643 167.707 188.73 167.564 188.785C167.42 188.84 167.266 188.863 167.112 188.851C166.819 188.868 166.529 188.777 166.297 188.595C166.084 188.395 165.958 188.119 165.946 187.827H166.249C166.261 188.044 166.352 188.249 166.505 188.403C166.678 188.537 166.894 188.605 167.112 188.595C167.225 188.605 167.339 188.588 167.444 188.547C167.549 188.505 167.644 188.439 167.719 188.355C167.87 188.147 167.944 187.892 167.927 187.635C167.943 187.39 167.862 187.149 167.703 186.963C167.62 186.878 167.52 186.812 167.41 186.768C167.301 186.724 167.183 186.703 167.064 186.707C166.937 186.689 166.808 186.689 166.681 186.707C166.551 186.752 166.431 186.822 166.329 186.915H166.042Z" fill="#F09886"/>
<path d="M186.448 127.147H173.552C172.82 127.147 172.226 127.742 172.226 128.476V128.732C172.226 129.466 172.82 130.06 173.552 130.06H186.448C187.181 130.06 187.774 129.466 187.774 128.732V128.476C187.774 127.742 187.181 127.147 186.448 127.147Z" fill="white"/>
<path d="M167.959 130.028H169.557C169.943 130.028 170.313 129.875 170.585 129.602C170.858 129.329 171.011 128.958 171.011 128.572C171.011 128.185 170.858 127.815 170.585 127.542C170.313 127.269 169.943 127.115 169.557 127.115H167.959C167.574 127.115 167.204 127.269 166.931 127.542C166.658 127.815 166.505 128.185 166.505 128.572C166.505 128.958 166.658 129.329 166.931 129.602C167.204 129.875 167.574 130.028 167.959 130.028Z" fill="white"/>
<path d="M162.047 220.656H158.004C157.88 220.656 157.78 220.756 157.78 220.88V226.994C157.78 227.118 157.88 227.219 158.004 227.219H162.047C162.17 227.219 162.27 227.118 162.27 226.994V220.88C162.27 220.756 162.17 220.656 162.047 220.656Z" fill="url(#paint8_linear_9_1265)"/>
<path d="M155.447 220.656H151.404C151.28 220.656 151.18 220.756 151.18 220.88V226.994C151.18 227.118 151.28 227.219 151.404 227.219H155.447C155.57 227.219 155.671 227.118 155.671 226.994V220.88C155.671 220.756 155.57 220.656 155.447 220.656Z" fill="url(#paint9_linear_9_1265)"/>
<path d="M162.206 225.394L160.209 225.01C160.119 224.994 160.027 224.994 159.937 225.01L157.94 225.394C157.348 225.522 156.821 224.882 156.821 224.049C156.821 223.217 157.348 222.577 157.94 222.705L159.937 223.089C160.027 223.105 160.119 223.105 160.209 223.089L162.206 222.705C162.782 222.577 163.309 223.217 163.309 224.049C163.309 224.882 162.782 225.522 162.206 225.394Z" fill="#F09886"/>
<path d="M155.415 225.394L153.417 225.01C153.327 224.994 153.235 224.994 153.146 225.01L151.148 225.394C150.557 225.522 150.03 224.882 150.03 224.049C150.03 223.217 150.557 222.577 151.148 222.705L153.146 223.089C153.235 223.105 153.327 223.105 153.417 223.089L155.415 222.705C155.99 222.577 156.517 223.217 156.517 224.049C156.517 224.882 155.99 225.522 155.415 225.394Z" fill="#324476"/>
<path d="M150.03 285.546C150.03 289.291 132.723 292.332 111.358 292.332C89.9928 292.332 72.6705 289.291 72.6705 285.546C72.6705 281.8 89.9928 278.743 111.358 278.743C132.723 278.743 150.03 281.784 150.03 285.546Z" fill="#59B2A1"/>
<path d="M118.389 257.759H103.4C102.052 257.759 100.76 257.222 99.8067 256.268C98.8537 255.313 98.3184 254.019 98.3184 252.669V247.419C98.3226 246.07 98.8593 244.778 99.8114 243.824C100.763 242.87 102.054 242.333 103.4 242.329H118.389C119.736 242.333 121.026 242.87 121.978 243.824C122.93 244.778 123.467 246.07 123.471 247.419V252.669C123.471 254.019 122.935 255.313 121.982 256.268C121.029 257.222 119.737 257.759 118.389 257.759ZM103.4 246.218C103.085 246.222 102.784 246.351 102.563 246.575C102.342 246.8 102.217 247.103 102.217 247.419V252.669C102.217 252.984 102.342 253.287 102.563 253.512C102.784 253.737 103.085 253.865 103.4 253.869H118.389C118.706 253.865 119.008 253.737 119.232 253.513C119.456 253.289 119.584 252.986 119.588 252.669V247.419C119.584 247.101 119.456 246.798 119.232 246.574C119.008 246.35 118.706 246.222 118.389 246.218H103.4Z" fill="#D86650"/>
<path d="M135.616 286.714H85.2627C84.4158 286.714 83.6647 286.234 83.6647 285.642L81.1559 267.106H139.706L137.086 285.642C137.086 286.234 136.463 286.714 135.616 286.714Z" fill="#F09985"/>
<path d="M135.616 250.812H85.2627C84.4158 250.812 83.6647 251.196 83.6647 251.66L81.1559 266.194H139.706L137.086 251.676C137.086 251.196 136.463 250.812 135.616 250.812Z" fill="#F09985"/>
<path d="M140.713 265.105H79.3981C78.9657 265.105 78.6151 265.457 78.6151 265.89V268.403C78.6151 268.836 78.9657 269.187 79.3981 269.187H140.713C141.146 269.187 141.496 268.836 141.496 268.403V265.89C141.496 265.457 141.146 265.105 140.713 265.105Z" fill="#D86650"/>
<path d="M98.3344 262.16H95.1224C94.8135 262.16 94.5631 262.411 94.5631 262.721V271.956C94.5631 272.266 94.8135 272.516 95.1224 272.516H98.3344C98.6433 272.516 98.8937 272.266 98.8937 271.956V262.721C98.8937 262.411 98.6433 262.16 98.3344 262.16Z" fill="#FCDB83"/>
<path d="M124.542 262.16H121.33C121.021 262.16 120.77 262.411 120.77 262.721V271.956C120.77 272.266 121.021 272.516 121.33 272.516H124.542C124.85 272.516 125.101 272.266 125.101 271.956V262.721C125.101 262.411 124.85 262.16 124.542 262.16Z" fill="#FCDB83"/>
</g>
<defs>
<linearGradient id="paint0_linear_9_1265" x1="180" y1="180" x2="180" y2="360" gradientUnits="userSpaceOnUse">
<stop stop-color="#D9D9D9" stop-opacity="0"/>
<stop offset="1" stop-color="#DFE0DF"/>
</linearGradient>
<linearGradient id="paint1_linear_9_1265" x1="159.969" y1="203.177" x2="159.969" y2="242.345" gradientUnits="userSpaceOnUse">
<stop stop-color="white"/>
<stop offset="0.58" stop-color="#FDFEFE"/>
<stop offset="0.79" stop-color="#F6FAFC"/>
<stop offset="0.94" stop-color="#EBF3F8"/>
<stop offset="1" stop-color="#E3EFF6"/>
</linearGradient>
<linearGradient id="paint2_linear_9_1265" x1="153.385" y1="203.177" x2="153.385" y2="242.345" gradientUnits="userSpaceOnUse">
<stop stop-color="white"/>
<stop offset="0.58" stop-color="#FDFEFE"/>
<stop offset="0.79" stop-color="#F6FAFC"/>
<stop offset="0.94" stop-color="#EBF3F8"/>
<stop offset="1" stop-color="#E3EFF6"/>
</linearGradient>
<linearGradient id="paint3_linear_9_1265" x1="165.578" y1="85.883" x2="165.578" y2="116.263" gradientUnits="userSpaceOnUse">
<stop offset="0.27" stop-color="white"/>
<stop offset="0.31" stop-color="#F7FBFD"/>
<stop offset="0.42" stop-color="#ECF4F9"/>
<stop offset="0.58" stop-color="#E5F0F7"/>
<stop offset="1" stop-color="#E3EFF6"/>
</linearGradient>
<linearGradient id="paint4_linear_9_1265" x1="165.578" y1="107.411" x2="165.578" y2="113.366" gradientUnits="userSpaceOnUse">
<stop offset="0.01" stop-color="white"/>
<stop offset="0.38" stop-color="#FAFCFD"/>
<stop offset="0.8" stop-color="#ECF4F9"/>
<stop offset="1" stop-color="#E3EFF6"/>
</linearGradient>
<linearGradient id="paint5_linear_9_1265" x1="165.578" y1="113.126" x2="165.578" y2="117.223" gradientUnits="userSpaceOnUse">
<stop offset="0.01" stop-color="white"/>
<stop offset="0.38" stop-color="#FAFCFD"/>
<stop offset="0.8" stop-color="#ECF4F9"/>
<stop offset="1" stop-color="#E3EFF6"/>
</linearGradient>
<linearGradient id="paint6_linear_9_1265" x1="165.578" y1="116.663" x2="165.578" y2="207.483" gradientUnits="userSpaceOnUse">
<stop offset="0.01" stop-color="white"/>
<stop offset="0.44" stop-color="#F1F7FA"/>
<stop offset="1" stop-color="#E3EFF6"/>
</linearGradient>
<linearGradient id="paint7_linear_9_1265" x1="141.96" y1="165.034" x2="189.181" y2="165.034" gradientUnits="userSpaceOnUse">
<stop offset="0.31" stop-color="white"/>
<stop offset="0.42" stop-color="#F8FBFD"/>
<stop offset="0.74" stop-color="#E8F2F8"/>
<stop offset="1" stop-color="#E3EFF6"/>
</linearGradient>
<linearGradient id="paint8_linear_9_1265" x1="160.017" y1="220.656" x2="160.017" y2="227.219" gradientUnits="userSpaceOnUse">
<stop stop-color="white"/>
<stop offset="0.21" stop-color="#F8FBFD"/>
<stop offset="1" stop-color="#E3EFF6"/>
</linearGradient>
<linearGradient id="paint9_linear_9_1265" x1="153.433" y1="220.656" x2="153.433" y2="227.219" gradientUnits="userSpaceOnUse">
<stop stop-color="white"/>
<stop offset="0.21" stop-color="#F8FBFD"/>
<stop offset="1" stop-color="#E3EFF6"/>
</linearGradient>
<clipPath id="clip0_9_1265">
<rect width="268" height="244" fill="white" transform="translate(46 58)"/>
</clipPath>
</defs>
</svg>
